<?xml version="1.0" encoding="UTF-8"?>
<svg id="_레이어_2" data-name="레이어 2" xmlns="http://www.w3.org/2000/svg" viewBox="0 0 70.87 23.51">
<!-- <svg xmlns="http://www.w3.org/2000/svg" viewBox="0 0 70.87 23.51" width="5" height="2"> -->
  <g id="_레이어_1-2" data-name="레이어 1" fill="white">
    <rect x="17.42" y="0" width="6.09" height="6.09" rx="1.19" ry="1.19"/>
    <path d="M6.09,16.23V7.28c0-.65.53-1.19,1.19-1.19h3.72c.65,0,1.19-.53,1.19-1.19V1.19c0-.65-.53-1.19-1.19-1.19H1.19C.53,0,0,.53,0,1.19v21.14c0,.65.53,1.19,1.19,1.19h21.14c.65,0,1.19-.53,1.19-1.19v-3.72c0-.65-.53-1.19-1.19-1.19H7.28c-.65,0-1.19-.53-1.19-1.19Z"/>
    <path d="M31.61,3.89c.4.52,1.05.86,1.87.86.68,0,1.11-.22,1.11-.69s-.48-.62-.96-.75l-.89-.24c-.99-.27-1.65-.61-1.65-1.51,0-.97.87-1.56,2.18-1.56.93,0,1.69.23,2.29.91l-.71.62c-.39-.43-.9-.66-1.57-.66-.62,0-1.03.24-1.03.64,0,.37.29.54.89.7l.87.24c1.11.29,1.75.7,1.75,1.59,0,1.08-.95,1.58-2.26,1.58s-2.08-.44-2.63-1.18l.76-.57Z"/>
    <path d="M36.29,5.52V1.62h1.04v.6c.12-.38.7-.71,1.28-.71.6,0,1.11.27,1.24.71.13-.33.65-.71,1.25-.71.73,0,1.41.39,1.41,1.27v2.75h-1.16v-2.54c0-.37-.3-.59-.68-.59-.31,0-.6.12-.69.35v2.78h-1.16v-2.54c0-.37-.29-.59-.66-.59-.31,0-.62.12-.7.35v2.78h-1.16Z"/>
    <path d="M45.78,5.52v-.39c-.28.3-.71.5-1.21.5-1,0-1.56-.51-1.56-1.33,0-.95.83-1.3,1.92-1.34l.73-.02c-.05-.46-.33-.63-.72-.63-.54,0-1,.16-1.35.39l-.38-.76c.39-.26,1-.44,1.78-.44,1.1,0,1.83.46,1.83,1.41v2.6h-1.05ZM45.67,4.45v-.69l-.7.03c-.51.02-.81.24-.81.56,0,.29.22.45.58.45.33,0,.66-.13.93-.35Z"/>
    <path d="M50.22,2.53c-.28-.11-.61-.18-.98-.12-.23.04-.49.16-.62.34v2.77h-1.17V1.62h1.05v.47c.18-.32.55-.52.9-.57.36-.04.84.03,1.09.17l-.26.84Z"/>
    <path d="M51.03,4.34v-1.83h-.73v-.88h.73V.37h1.16v1.25h1.12v.88h-1.12v1.75c0,.34.15.5.43.5s.46-.06.66-.13l.24.81c-.32.13-.73.2-1.16.2-.82,0-1.33-.39-1.33-1.3Z"/>
    <path d="M31.12,9.05h1.17v5.41h-1.17v-5.41Z"/>
    <path d="M35.19,10.45c1.31,0,2.21.81,2.21,2.06s-.9,2.06-2.21,2.06-2.19-.81-2.19-2.06.88-2.06,2.19-2.06ZM35.19,13.69c.63,0,1.05-.43,1.05-1.18s-.43-1.18-1.05-1.18-1.04.43-1.04,1.18.41,1.18,1.04,1.18Z"/>
    <path d="M38.59,9.93h-1.77v-.88h4.73v.88h-1.77v4.53h-1.19v-4.53Z"/>
    <path d="M44.39,12.83c.4.52,1.05.86,1.87.86.68,0,1.11-.22,1.11-.69s-.48-.62-.96-.75l-.89-.24c-.99-.27-1.65-.61-1.65-1.51,0-.97.87-1.56,2.18-1.56.93,0,1.69.23,2.29.91l-.71.62c-.39-.43-.9-.66-1.57-.66-.62,0-1.03.24-1.03.64,0,.37.29.54.89.7l.87.24c1.11.29,1.75.7,1.75,1.59,0,1.08-.95,1.58-2.26,1.58s-2.08-.44-2.63-1.18l.76-.57Z"/>
    <path d="M48.95,16.55l1.05-2.29-1.71-3.7h1.17l1.1,2.45,1.07-2.45h1.16l-2.68,5.99h-1.16Z"/>
    <path d="M52.72,13.76l.61-.65c.39.36.95.6,1.47.6.41,0,.66-.1.66-.36,0-.24-.25-.35-.63-.41l-.5-.08c-.8-.13-1.39-.45-1.39-1.17,0-.76.7-1.24,1.77-1.24.72,0,1.26.23,1.65.55l-.5.7c-.32-.21-.72-.38-1.09-.38s-.7.09-.7.33c0,.22.23.31.66.38l.48.1c.82.14,1.38.49,1.38,1.21,0,.82-.71,1.24-1.78,1.24-.87,0-1.58-.32-2.08-.82Z"/>
    <path d="M57.43,13.28v-1.83h-.73v-.88h.73v-1.25h1.16v1.25h1.12v.88h-1.12v1.75c0,.34.15.5.43.5s.46-.06.66-.13l.24.81c-.32.13-.73.2-1.16.2-.82,0-1.33-.39-1.33-1.3Z"/>
    <path d="M64.04,13.7c-.27.49-1.05.87-1.95.87-1.29,0-2.21-.83-2.21-2.06s.86-2.07,2.15-2.07,2.12.84,2.12,2.16c0,.09-.02.19-.03.27h-3.06c.09.55.48.85,1.07.85.51,0,.95-.25,1.14-.52l.77.51ZM62.98,12.19c-.05-.41-.37-.86-.94-.86s-.91.43-.94.86h1.88Z"/>
    <path d="M64.65,14.46v-3.9h1.04v.6c.12-.38.7-.71,1.28-.71.6,0,1.11.27,1.24.71.13-.33.65-.71,1.25-.71.73,0,1.41.39,1.41,1.27v2.75h-1.16v-2.54c0-.37-.3-.59-.68-.59-.31,0-.6.12-.69.35v2.78h-1.16v-2.54c0-.37-.29-.59-.66-.59-.31,0-.62.12-.7.35v2.78h-1.16Z"/>
    <path d="M33.72,17.88c1.07,0,1.82.4,2.36,1.11l-.78.57c-.36-.52-.9-.79-1.5-.79-1.02,0-1.75.72-1.75,1.92s.73,1.93,1.75,1.93c.69,0,1.23-.26,1.58-.77l.79.59c-.55.71-1.33,1.08-2.45,1.08-1.66,0-2.83-1.09-2.83-2.82s1.17-2.81,2.83-2.81Z"/>
    <path d="M42.1,20.7c0,1.75-1.21,2.81-2.87,2.81s-2.87-1.06-2.87-2.81,1.21-2.82,2.87-2.82,2.87,1.07,2.87,2.82ZM37.52,20.7c0,1.24.7,1.93,1.71,1.93s1.71-.69,1.71-1.93-.7-1.94-1.71-1.94-1.71.7-1.71,1.94Z"/>
    <path d="M45.47,17.88c1.07,0,1.82.4,2.36,1.11l-.78.57c-.36-.52-.9-.79-1.5-.79-1.02,0-1.75.72-1.75,1.92s.73,1.93,1.75,1.93c.69,0,1.23-.26,1.58-.77l.79.59c-.55.71-1.33,1.08-2.45,1.08-1.66,0-2.83-1.09-2.83-2.82s1.17-2.81,2.83-2.81Z"/>
    <path d="M51.79,22.19h-2.23l-.49,1.21h-1.16l2.25-5.41h1.02l2.25,5.41h-1.16l-.49-1.21ZM49.92,21.31h1.51l-.63-1.55-.12-.47-.12.47-.63,1.55Z"/>
    <path d="M57.64,20.6c.46.18.87.62.87,1.22,0,.96-.68,1.59-2.06,1.59h-2.7v-5.34h2.72c1.21,0,1.78.54,1.78,1.47,0,.46-.29.88-.61,1.07ZM54.91,18.95v1.25h1.38c.55,0,.83-.17.83-.63s-.28-.63-.83-.63h-1.38ZM56.32,21.09h-1.41v1.43h1.41c.63,0,1.04-.16,1.04-.71s-.41-.71-1.04-.71Z"/>
    <path d="M64.67,20.7c0,1.75-1.21,2.81-2.87,2.81s-2.87-1.06-2.87-2.81,1.21-2.82,2.87-2.82,2.87,1.07,2.87,2.82ZM60.09,20.7c0,1.24.7,1.93,1.71,1.93s1.71-.69,1.71-1.93-.7-1.94-1.71-1.94-1.71.7-1.71,1.94Z"/>
    <path d="M66.32,18.87h-1.77v-.88h4.73v.88h-1.77v4.53h-1.19v-4.53Z"/>
  </g>
</svg>