<?xml version="1.0" encoding="UTF-8"?>
<svg
  id="_레이어_2"
  data-name="레이어 2"
  xmlns="http://www.w3.org/2000/svg"
  viewBox="0 0 23.51 23.51">
  <g
    id="_레이어_1-2"
    data-name="레이어 1">
    <rect
      x="17.42"
      y="0"
      width="6.09"
      height="6.09"
      rx="1.19"
      ry="1.19" />
    <path
      d="M6.09,16.23V7.28c0-.65.53-1.19,1.19-1.19h3.72c.65,0,1.19-.53,1.19-1.19V1.19c0-.65-.53-1.19-1.19-1.19H1.19C.53,0,0,.53,0,1.19v21.14c0,.65.53,1.19,1.19,1.19h21.14c.65,0,1.19-.53,1.19-1.19v-3.72c0-.65-.53-1.19-1.19-1.19H7.28c-.65,0-1.19-.53-1.19-1.19Z" />
  </g>
</svg>